<svg width="540" height="44" viewBox="0 0 540 44" fill="none" xmlns="http://www.w3.org/2000/svg">
<path d="M0 0H45V7.89425V22.1039V22.8933V23.6827V24.4722L43.6364 26.051L42.2727 26.8404H41.5909H40.9091H37.5H7.5V44H0V26.8404V18.1568L37.5 17.7621V8.68367H0V0Z" fill="#7C7C7C"/>
<path d="M53 0H60.2222V18.8571H92L90.5556 24.3571L87.6667 27.5H60.2222V44H53V0Z" fill="#7C7C7C"/>
<rect x="53" width="8" height="44" fill="#7C7C7C"/>
<rect x="92" width="8" height="44" fill="#7C7C7C"/>
<path d="M116.831 0H161V7.85714V20.4286L159.62 22.7857L157.549 25.1429L154.789 26.7143H145.817L159.62 44H149.268L134.085 26.7143H122.352L121.662 44H114.07V26.7143V18.0714H151.338L153.053 16.5V7.85714H118.51L116.831 7.07143L115.451 6.28571L114.07 4.71429L113.38 3.92857L112.69 3.14286L112 0H113.38H116.831Z" fill="#7C7C7C"/>
<path d="M167 0H208.188H216L213.159 5.25L208.188 9H174.099L171.261 7.5L168.42 5.25L167 0Z" fill="#7C7C7C"/>
<path d="M491 0H532.513H540L536.599 5.25L532.513 9H499.845L497.125 7.5L493.722 5.25L491 0Z" fill="#7C7C7C"/>
<path d="M491 18H532.513H540L536.599 22.6667L532.513 26H499.845L497.125 24.6667L493.722 22.6667L491 18Z" fill="#7C7C7C"/>
<path d="M491 35H532.513H540L536.599 40.25L532.513 44H499.845L497.125 42.5L493.722 40.25L491 35Z" fill="#7C7C7C"/>
<path d="M275 0H316.188H324L321.159 5.25L316.188 9H282.099L279.261 7.5L276.42 5.25L275 0Z" fill="#7C7C7C"/>
<rect x="167" y="18" width="8" height="26" fill="#7C7C7C"/>
<rect x="206" y="18" width="8" height="26" fill="#7C7C7C"/>
<rect x="175" y="35" width="31" height="9" fill="#7C7C7C"/>
<path d="M229.5 7.85714L222 0H233.591L239.727 7.85714L258.818 29.8571V0H267V38.5V44H258.818L236.318 18.0714V44H229.5V7.85714Z" fill="#7C7C7C"/>
<path d="M445.5 7.85714L438 0H449.591L455.727 7.85714L474.818 29.8571V0H483V38.5V44H474.818L452.318 18.0714V44H445.5V7.85714Z" fill="#7C7C7C"/>
<rect x="295" y="9" width="9" height="35" fill="#7C7C7C"/>
<path d="M330 0H338.06V34.1889L375 34.5714L374.328 40.8571L369.627 44H338.06H330V0Z" fill="#7C7C7C"/>
<path d="M383 0H391.294V4.71429L406.5 22L421.015 4.71429V0H430V7.85714L411.338 29.0714V44H402.353V29.0714L383 7.85714V0Z" fill="#7C7C7C"/>
</svg>
